
        <svg width="300" height="100" viewBox="0 0 300 100" xmlns="http://www.w3.org/2000/svg">
          <defs>
            <clipPath id="arrowClip-73552b">
              <rect x="0" y="0" width="300" height="100"/>
            </clipPath>
            
        <linearGradient id="maskGradSpreadA-73552b" x1="0" y1="0" x2="1" y2="0">
          <stop offset="0%" stop-color="black" stop-opacity="0"/>
          <stop offset="37.5%" stop-color="white" stop-opacity="1"/>
          <stop offset="62.5%" stop-color="white" stop-opacity="1"/>
          <stop offset="100%" stop-color="black" stop-opacity="0"/>
        </linearGradient>
        <linearGradient id="maskGradSpreadB-73552b" x1="0" y1="0" x2="1" y2="0">
          <stop offset="0%" stop-color="black" stop-opacity="0"/>
          <stop offset="37.5%" stop-color="white" stop-opacity="1"/>
          <stop offset="62.5%" stop-color="white" stop-opacity="1"/>
          <stop offset="100%" stop-color="black" stop-opacity="0"/>
        </linearGradient>
        <mask id="sweepMaskA-73552b" maskUnits="userSpaceOnUse" x="0" y="0" width="300" height="100">
          <rect class="sweep-rect-a" x="30.00" y="-50.00" width="240.00" height="200.00" fill="url(#maskGradSpreadA-73552b)"/>
        </mask>
        <mask id="sweepMaskB-73552b" maskUnits="userSpaceOnUse" x="0" y="0" width="300" height="100">
          <rect class="sweep-rect-b" x="30.00" y="-50.00" width="240.00" height="200.00" fill="url(#maskGradSpreadB-73552b)"/>
        </mask>
        
          </defs>
          <style>
            
        .arrow-dim polyline {
          stroke: #6366f1;
          stroke-opacity: 0.5;
          stroke-width: 12;
          stroke-linecap: round;
          stroke-linejoin: round;
          fill: none;
        }
        .arrow-hi-a polyline,
        .arrow-hi-b polyline {
          stroke: #6366f1;
          stroke-width: 12;
          stroke-linecap: round;
          stroke-linejoin: round;
          fill: none;
        }
        .arrow-hi-a polyline { mask: url(#sweepMaskA-73552b); }
        .arrow-hi-b polyline { mask: url(#sweepMaskB-73552b); }
        @keyframes sweepA { 0% { transform: translateX(0px); } 100% { transform: translateX(-270.00px); } }
        @keyframes sweepB { 0% { transform: translateX(0px); } 100% { transform: translateX(270.00px); } }
        .sweep-rect-a { animation: sweepA 3.00s linear infinite; transform-box: fill-box; transform-origin: center; }
        .sweep-rect-b { animation: sweepB 3.00s linear infinite; transform-box: fill-box; transform-origin: center; }
        
          </style>
          <g clip-path="url(#arrowClip-73552b)">
            <g class="arrow-dim"><g transform="translate(98,50)"><polyline points="13,-40 -13,0 13,40"/></g><g transform="translate(72,50)"><polyline points="13,-40 -13,0 13,40"/></g><g transform="translate(46,50)"><polyline points="13,-40 -13,0 13,40"/></g><g transform="translate(20,50)"><polyline points="13,-40 -13,0 13,40"/></g><g transform="translate(202,50)"><polyline points="-13,-40 13,0 -13,40"/></g><g transform="translate(228,50)"><polyline points="-13,-40 13,0 -13,40"/></g><g transform="translate(254,50)"><polyline points="-13,-40 13,0 -13,40"/></g><g transform="translate(280,50)"><polyline points="-13,-40 13,0 -13,40"/></g></g>
            <g class="arrow-hi-a"><g transform="translate(98,50)"><polyline points="13,-40 -13,0 13,40"/></g><g transform="translate(72,50)"><polyline points="13,-40 -13,0 13,40"/></g><g transform="translate(46,50)"><polyline points="13,-40 -13,0 13,40"/></g><g transform="translate(20,50)"><polyline points="13,-40 -13,0 13,40"/></g></g>
            <g class="arrow-hi-b"><g transform="translate(202,50)"><polyline points="-13,-40 13,0 -13,40"/></g><g transform="translate(228,50)"><polyline points="-13,-40 13,0 -13,40"/></g><g transform="translate(254,50)"><polyline points="-13,-40 13,0 -13,40"/></g><g transform="translate(280,50)"><polyline points="-13,-40 13,0 -13,40"/></g></g>
          </g>
        </svg>
        