
        <svg width="80" height="250" viewBox="0 0 80 250" xmlns="http://www.w3.org/2000/svg">
          <defs>
            <clipPath id="arrowClip-1e34ad">
              <rect x="0" y="0" width="80" height="250"/>
            </clipPath>
            
        <linearGradient id="maskGradSpreadA-1e34ad" x1="0" y1="0" x2="0" y2="1">
          <stop offset="0%" stop-color="black" stop-opacity="0"/>
          <stop offset="32.5%" stop-color="white" stop-opacity="1"/>
          <stop offset="67.5%" stop-color="white" stop-opacity="1"/>
          <stop offset="100%" stop-color="black" stop-opacity="0"/>
        </linearGradient>
        <linearGradient id="maskGradSpreadB-1e34ad" x1="0" y1="0" x2="0" y2="1">
          <stop offset="0%" stop-color="black" stop-opacity="0"/>
          <stop offset="32.5%" stop-color="white" stop-opacity="1"/>
          <stop offset="67.5%" stop-color="white" stop-opacity="1"/>
          <stop offset="100%" stop-color="black" stop-opacity="0"/>
        </linearGradient>
        <mask id="sweepMaskA-1e34ad" maskUnits="userSpaceOnUse" x="0" y="0" width="80" height="250">
          <rect class="sweep-rect-a" x="-40.00" y="25.00" width="160.00" height="200.00" fill="url(#maskGradSpreadA-1e34ad)"/>
        </mask>
        <mask id="sweepMaskB-1e34ad" maskUnits="userSpaceOnUse" x="0" y="0" width="80" height="250">
          <rect class="sweep-rect-b" x="-40.00" y="25.00" width="160.00" height="200.00" fill="url(#maskGradSpreadB-1e34ad)"/>
        </mask>
        
          </defs>
          <style>
            
        .arrow-dim polyline {
          stroke: #059669;
          stroke-opacity: 0.1;
          stroke-width: 10;
          stroke-linecap: round;
          stroke-linejoin: round;
          fill: none;
        }
        .arrow-hi-a polyline,
        .arrow-hi-b polyline {
          stroke: #059669;
          stroke-width: 10;
          stroke-linecap: round;
          stroke-linejoin: round;
          fill: none;
        }
        .arrow-hi-a polyline { mask: url(#sweepMaskA-1e34ad); }
        .arrow-hi-b polyline { mask: url(#sweepMaskB-1e34ad); }
        @keyframes sweepA { 0% { transform: translateY(0px); } 100% { transform: translateY(-225.00px); } }
        @keyframes sweepB { 0% { transform: translateY(0px); } 100% { transform: translateY(225.00px); } }
        .sweep-rect-a { animation: sweepA 7.14s linear infinite; transform-box: fill-box; transform-origin: center; }
        .sweep-rect-b { animation: sweepB 7.14s linear infinite; transform-box: fill-box; transform-origin: center; }
        
          </style>
          <g clip-path="url(#arrowClip-1e34ad)">
            <g class="arrow-dim"><g transform="translate(40,89)"><polyline points="-32,16 0,-16 32,16"/></g><g transform="translate(40,56)"><polyline points="-32,16 0,-16 32,16"/></g><g transform="translate(40,23)"><polyline points="-32,16 0,-16 32,16"/></g><g transform="translate(40,161)"><polyline points="-32,-16 0,16 32,-16"/></g><g transform="translate(40,194)"><polyline points="-32,-16 0,16 32,-16"/></g><g transform="translate(40,227)"><polyline points="-32,-16 0,16 32,-16"/></g></g>
            <g class="arrow-hi-a"><g transform="translate(40,89)"><polyline points="-32,16 0,-16 32,16"/></g><g transform="translate(40,56)"><polyline points="-32,16 0,-16 32,16"/></g><g transform="translate(40,23)"><polyline points="-32,16 0,-16 32,16"/></g></g>
            <g class="arrow-hi-b"><g transform="translate(40,161)"><polyline points="-32,-16 0,16 32,-16"/></g><g transform="translate(40,194)"><polyline points="-32,-16 0,16 32,-16"/></g><g transform="translate(40,227)"><polyline points="-32,-16 0,16 32,-16"/></g></g>
          </g>
        </svg>
        